<?xml version="1.0" encoding="UTF-8" standalone="no"?>
<!DOCTYPE svg PUBLIC "-//W3C//DTD SVG 1.1//EN" "http://www.w3.org/Graphics/SVG/1.1/DTD/svg11.dtd">
<svg width="100%" height="100%" viewBox="0 0 60 60" version="1.1" xmlns="http://www.w3.org/2000/svg" xmlns:xlink="http://www.w3.org/1999/xlink" xml:space="preserve" xmlns:serif="http://www.serif.com/" style="fill-rule:evenodd;clip-rule:evenodd;stroke-linejoin:round;stroke-miterlimit:2;">
    <g transform="matrix(1,0,0,1,-915.36,-1812.52)">
        <g transform="matrix(1,0,0,3.99,0,0)">
            <g id="shop-business-svgrepo-com.svg" transform="matrix(0.151111,0,0,0.0378725,945.28,461.764)">
                <g transform="matrix(1,0,0,1,-198,-198)">
                    <g>
                        <g>
                            <g>
                                <path d="M396,158L396,157.2L382,42.8C380.4,30.8 370,22 358,22L38.4,22C26.4,22 16.4,30.8 14.4,42.8L0,156.8L0,158C0,177.2 13.6,193.6 32,197.2L32,310L31.6,310C22,310 12.8,316 9.6,324.8L2.8,340.8C-0.4,348 0.4,356.4 4.8,363.2C9.2,370 16.8,374 24.8,374L371.2,374C379.2,374 386.8,370 391.2,363.6C395.6,357.2 396.8,348.8 393.6,340.8L387.2,325.2C384,317.2 376.4,311.6 368,310.4L368,196C384.4,190.8 396,175.6 396,158ZM372,331.6L378.8,347.2C380,349.6 379.6,352 378,354.4C376.4,356.8 374,358 371.2,358L24.8,358C22,358 19.6,356.8 18,354.4C16.4,352 16.4,349.6 17.2,347.2L24,331.2C25.2,328.4 28.4,326.4 31.2,326.4L364.4,326.4C367.6,326.4 370.8,328.4 372,331.6ZM120,262L128,262L128,310L48,310L48,198L52,198C65.2,198 76.8,191.6 84,182C91.2,191.6 102.8,198 116,198L128,198L128,246L120,246C115.6,246 112,249.6 112,254C112,258.4 115.6,262 120,262ZM256,262L256,310L144,310L144,262L256,262ZM144,246L144,194.4C150.4,191.6 156,187.6 160,182C167.2,191.6 178.8,198 192,198L204,198C217.2,198 228.8,191.6 236,182C240.8,188.8 248,193.6 256,196L256,246L144,246ZM316,246L272,246L272,198L280,198C293.2,198 304.8,191.6 312,182C319.2,191.6 330.8,198 344,198L352,198L352,310L272,310L272,262L316,262C320.4,262 324,258.4 324,254C324,249.6 320.4,246 316,246ZM356,182L344,182C330.8,182 320,171.2 320,158C320,153.6 316.4,150 312,150C307.6,150 304,153.6 304,158C304,171.2 293.2,182 280,182L268,182C254.8,182 244,171.2 244,158C244,153.6 240.4,150 236,150C231.6,150 228,153.6 228,158C228,171.2 217.2,182 204,182L192,182C178.8,182 168,171.2 168,158C168,153.6 164.4,150 160,150C155.6,150 152,153.6 152,158C152,171.2 141.2,182 128,182L116,182C102.8,182 92,171.2 92,158C92,153.6 88.4,150 84,150C79.6,150 76,153.6 76,158C76,171.2 65.2,182 52,182L40,182C26.8,182 16.4,171.6 16,158.4L30.4,45.2C31.2,41.2 34.4,38 38.4,38L358,38C362,38 365.6,41.2 366,44.8L380,158.4C379.6,171.6 369.2,182 356,182Z" style="fill-rule:nonzero;"/>
                                <path d="M88,246L76,246C71.6,246 68,249.6 68,254C68,258.4 71.6,262 76,262L88,262C92.4,262 96,258.4 96,254C96,249.6 92.4,246 88,246Z" style="fill-rule:nonzero;"/>
                            </g>
                        </g>
                    </g>
                </g>
            </g>
        </g>
    </g>
</svg>
