<?xml version="1.0" encoding="UTF-8" standalone="no"?>
<!DOCTYPE svg PUBLIC "-//W3C//DTD SVG 1.1//EN" "http://www.w3.org/Graphics/SVG/1.1/DTD/svg11.dtd">
<svg width="100%" height="100%" viewBox="0 0 236 120" version="1.1" xmlns="http://www.w3.org/2000/svg" xmlns:xlink="http://www.w3.org/1999/xlink" xml:space="preserve" xmlns:serif="http://www.serif.com/" style="fill-rule:evenodd;clip-rule:evenodd;stroke-linejoin:round;stroke-miterlimit:2;">
    <g transform="matrix(1,0,0,1,-514.689,-100.073)">
        <g transform="matrix(1,0,0,3.99,0,0)">
            <g transform="matrix(0.374069,0,0,0.219032,273.237,5.12891)">
                <g transform="matrix(1.71787,0,0,0.428027,-773.619,-100.479)">
                    <path d="M1021.98,447.571C1090.53,448.093 1133.11,542.333 1134.63,607.211C1135.18,630.489 1136.81,702.683 1045.43,751.8C990.986,781.064 923.565,790.343 931.902,608.874C933.341,577.571 925.766,446.838 1021.98,447.571Z" style="fill:rgb(147,243,252);"/>
                </g>
                <g transform="matrix(6.44942,0,0,2.76052,-4896.95,-1184.76)">
                    <path d="M900.628,472.498C901.373,472.498 901.912,472.671 902.246,473.018C902.58,473.364 902.747,473.889 902.747,474.591L902.747,474.916C902.747,475.384 902.673,475.769 902.526,476.073C902.378,476.376 902.144,476.601 901.824,476.749C902.214,476.896 902.489,477.136 902.649,477.47C902.809,477.804 902.89,478.213 902.89,478.699L902.89,479.44C902.89,480.142 902.708,480.677 902.344,481.045C901.98,481.413 901.438,481.598 900.719,481.598L898.47,481.598L898.47,472.498L900.628,472.498ZM899.9,477.503L899.9,480.298L900.719,480.298C900.961,480.298 901.145,480.233 901.271,480.103C901.397,479.973 901.46,479.739 901.46,479.401L901.46,478.608C901.46,478.183 901.388,477.893 901.245,477.737C901.102,477.581 900.866,477.503 900.537,477.503L899.9,477.503ZM899.9,473.798L899.9,476.203L900.459,476.203C900.727,476.203 900.937,476.133 901.089,475.995C901.241,475.856 901.317,475.605 901.317,475.241L901.317,474.734C901.317,474.404 901.258,474.166 901.141,474.019C901.024,473.871 900.84,473.798 900.589,473.798L899.9,473.798Z" style="fill:rgb(76,76,76);fill-rule:nonzero;"/>
                    <path d="M906.543,472.498L906.543,479.518C906.543,479.847 906.61,480.077 906.744,480.207C906.878,480.337 907.058,480.402 907.284,480.402C907.509,480.402 907.689,480.337 907.823,480.207C907.957,480.077 908.025,479.847 908.025,479.518L908.025,472.498L909.377,472.498L909.377,479.427C909.377,480.163 909.197,480.729 908.837,481.123C908.477,481.517 907.947,481.715 907.245,481.715C906.543,481.715 906.012,481.517 905.652,481.123C905.292,480.729 905.113,480.163 905.113,479.427L905.113,472.498L906.543,472.498Z" style="fill:rgb(76,76,76);fill-rule:nonzero;"/>
                    <path d="M911.6,474.682C911.6,473.945 911.775,473.379 912.126,472.985C912.477,472.591 913.004,472.394 913.706,472.394C914.408,472.394 914.934,472.591 915.285,472.985C915.636,473.379 915.812,473.945 915.812,474.682L915.812,474.968L914.46,474.968L914.46,474.591C914.46,474.261 914.397,474.029 914.271,473.895C914.145,473.761 913.97,473.694 913.745,473.694C913.519,473.694 913.344,473.761 913.218,473.895C913.092,474.029 913.03,474.261 913.03,474.591C913.03,474.903 913.099,475.178 913.238,475.416C913.376,475.654 913.55,475.88 913.758,476.092C913.966,476.304 914.189,476.517 914.427,476.729C914.665,476.941 914.889,477.173 915.097,477.425C915.305,477.676 915.478,477.962 915.617,478.283C915.755,478.603 915.825,478.98 915.825,479.414C915.825,480.15 915.645,480.716 915.285,481.11C914.925,481.504 914.395,481.702 913.693,481.702C912.991,481.702 912.46,481.504 912.1,481.11C911.74,480.716 911.561,480.15 911.561,479.414L911.561,478.855L912.913,478.855L912.913,479.505C912.913,479.834 912.98,480.064 913.114,480.194C913.248,480.324 913.428,480.389 913.654,480.389C913.879,480.389 914.059,480.324 914.193,480.194C914.327,480.064 914.395,479.834 914.395,479.505C914.395,479.193 914.325,478.917 914.187,478.679C914.048,478.441 913.875,478.215 913.667,478.003C913.459,477.791 913.235,477.578 912.997,477.366C912.759,477.154 912.536,476.922 912.328,476.671C912.12,476.419 911.946,476.133 911.808,475.813C911.669,475.492 911.6,475.115 911.6,474.682Z" style="fill:rgb(76,76,76);fill-rule:nonzero;"/>
                    <rect x="918.074" y="472.498" width="1.43" height="9.1" style="fill:rgb(76,76,76);fill-rule:nonzero;"/>
                    <path d="M923.248,475.007L923.248,481.598L921.961,481.598L921.961,472.498L923.755,472.498L925.224,477.945L925.224,472.498L926.498,472.498L926.498,481.598L925.029,481.598L923.248,475.007Z" style="fill:rgb(76,76,76);fill-rule:nonzero;"/>
                    <path d="M930.385,476.333L932.348,476.333L932.348,477.633L930.385,477.633L930.385,480.298L932.855,480.298L932.855,481.598L928.955,481.598L928.955,472.498L932.855,472.498L932.855,473.798L930.385,473.798L930.385,476.333Z" style="fill:rgb(76,76,76);fill-rule:nonzero;"/>
                    <path d="M934.987,474.682C934.987,473.945 935.162,473.379 935.513,472.985C935.864,472.591 936.391,472.394 937.093,472.394C937.795,472.394 938.321,472.591 938.672,472.985C939.023,473.379 939.199,473.945 939.199,474.682L939.199,474.968L937.847,474.968L937.847,474.591C937.847,474.261 937.784,474.029 937.658,473.895C937.532,473.761 937.357,473.694 937.132,473.694C936.906,473.694 936.731,473.761 936.605,473.895C936.479,474.029 936.417,474.261 936.417,474.591C936.417,474.903 936.486,475.178 936.625,475.416C936.763,475.654 936.937,475.88 937.145,476.092C937.353,476.304 937.576,476.517 937.814,476.729C938.052,476.941 938.276,477.173 938.484,477.425C938.692,477.676 938.865,477.962 939.004,478.283C939.142,478.603 939.212,478.98 939.212,479.414C939.212,480.15 939.032,480.716 938.672,481.11C938.312,481.504 937.782,481.702 937.08,481.702C936.378,481.702 935.847,481.504 935.487,481.11C935.127,480.716 934.948,480.15 934.948,479.414L934.948,478.855L936.3,478.855L936.3,479.505C936.3,479.834 936.367,480.064 936.501,480.194C936.635,480.324 936.815,480.389 937.041,480.389C937.266,480.389 937.446,480.324 937.58,480.194C937.714,480.064 937.782,479.834 937.782,479.505C937.782,479.193 937.712,478.917 937.574,478.679C937.435,478.441 937.262,478.215 937.054,478.003C936.846,477.791 936.622,477.578 936.384,477.366C936.146,477.154 935.923,476.922 935.715,476.671C935.507,476.419 935.333,476.133 935.195,475.813C935.056,475.492 934.987,475.115 934.987,474.682Z" style="fill:rgb(76,76,76);fill-rule:nonzero;"/>
                    <path d="M941.279,474.682C941.279,473.945 941.454,473.379 941.805,472.985C942.156,472.591 942.683,472.394 943.385,472.394C944.087,472.394 944.613,472.591 944.964,472.985C945.315,473.379 945.491,473.945 945.491,474.682L945.491,474.968L944.139,474.968L944.139,474.591C944.139,474.261 944.076,474.029 943.95,473.895C943.824,473.761 943.649,473.694 943.424,473.694C943.198,473.694 943.023,473.761 942.897,473.895C942.771,474.029 942.709,474.261 942.709,474.591C942.709,474.903 942.778,475.178 942.917,475.416C943.055,475.654 943.229,475.88 943.437,476.092C943.645,476.304 943.868,476.517 944.106,476.729C944.344,476.941 944.568,477.173 944.776,477.425C944.984,477.676 945.157,477.962 945.296,478.283C945.434,478.603 945.504,478.98 945.504,479.414C945.504,480.15 945.324,480.716 944.964,481.11C944.604,481.504 944.074,481.702 943.372,481.702C942.67,481.702 942.139,481.504 941.779,481.11C941.419,480.716 941.24,480.15 941.24,479.414L941.24,478.855L942.592,478.855L942.592,479.505C942.592,479.834 942.659,480.064 942.793,480.194C942.927,480.324 943.107,480.389 943.333,480.389C943.558,480.389 943.738,480.324 943.872,480.194C944.006,480.064 944.074,479.834 944.074,479.505C944.074,479.193 944.004,478.917 943.866,478.679C943.727,478.441 943.554,478.215 943.346,478.003C943.138,477.791 942.914,477.578 942.676,477.366C942.438,477.154 942.215,476.922 942.007,476.671C941.799,476.419 941.625,476.133 941.487,475.813C941.348,475.492 941.279,475.115 941.279,474.682Z" style="fill:rgb(76,76,76);fill-rule:nonzero;"/>
                </g>
                <g transform="matrix(2.97639,0,0,1.27397,-1771.83,-408.418)">
                    <path d="M898.288,474.682C898.288,473.945 898.463,473.379 898.814,472.985C899.165,472.591 899.692,472.394 900.394,472.394C901.096,472.394 901.622,472.591 901.973,472.985C902.324,473.379 902.5,473.945 902.5,474.682L902.5,474.968L901.148,474.968L901.148,474.591C901.148,474.261 901.085,474.029 900.959,473.895C900.833,473.761 900.658,473.694 900.433,473.694C900.207,473.694 900.032,473.761 899.906,473.895C899.78,474.029 899.718,474.261 899.718,474.591C899.718,474.903 899.787,475.178 899.926,475.416C900.064,475.654 900.238,475.88 900.446,476.092C900.654,476.304 900.877,476.517 901.115,476.729C901.353,476.941 901.577,477.173 901.785,477.425C901.993,477.676 902.166,477.962 902.305,478.283C902.443,478.603 902.513,478.98 902.513,479.414C902.513,480.15 902.333,480.716 901.973,481.11C901.613,481.504 901.083,481.702 900.381,481.702C899.679,481.702 899.148,481.504 898.788,481.11C898.428,480.716 898.249,480.15 898.249,479.414L898.249,478.855L899.601,478.855L899.601,479.505C899.601,479.834 899.668,480.064 899.802,480.194C899.936,480.324 900.116,480.389 900.342,480.389C900.567,480.389 900.747,480.324 900.881,480.194C901.015,480.064 901.083,479.834 901.083,479.505C901.083,479.193 901.013,478.917 900.875,478.679C900.736,478.441 900.563,478.215 900.355,478.003C900.147,477.791 899.923,477.578 899.685,477.366C899.447,477.154 899.224,476.922 899.016,476.671C898.808,476.419 898.634,476.133 898.496,475.813C898.357,475.492 898.288,475.115 898.288,474.682Z" style="fill:rgb(76,76,76);fill-rule:nonzero;"/>
                    <path d="M906.127,472.498L906.127,479.518C906.127,479.847 906.194,480.077 906.328,480.207C906.462,480.337 906.642,480.402 906.868,480.402C907.093,480.402 907.273,480.337 907.407,480.207C907.541,480.077 907.609,479.847 907.609,479.518L907.609,472.498L908.961,472.498L908.961,479.427C908.961,480.163 908.781,480.729 908.421,481.123C908.061,481.517 907.531,481.715 906.829,481.715C906.127,481.715 905.596,481.517 905.236,481.123C904.876,480.729 904.697,480.163 904.697,479.427L904.697,472.498L906.127,472.498Z" style="fill:rgb(76,76,76);fill-rule:nonzero;"/>
                    <path d="M913.472,472.498C914.191,472.498 914.726,472.688 915.077,473.07C915.428,473.451 915.604,474.01 915.604,474.747L915.604,475.93C915.604,476.666 915.428,477.225 915.077,477.607C914.726,477.988 914.191,478.179 913.472,478.179L912.796,478.179L912.796,481.598L911.366,481.598L911.366,472.498L913.472,472.498ZM912.796,473.798L912.796,476.879L913.472,476.879C913.697,476.879 913.87,476.818 913.992,476.697C914.113,476.575 914.174,476.35 914.174,476.021L914.174,474.656C914.174,474.326 914.113,474.101 913.992,473.98C913.87,473.858 913.697,473.798 913.472,473.798L912.796,473.798Z" style="fill:rgb(76,76,76);fill-rule:nonzero;"/>
                    <path d="M919.868,472.498C920.587,472.498 921.122,472.688 921.473,473.07C921.824,473.451 922,474.01 922,474.747L922,475.93C922,476.666 921.824,477.225 921.473,477.607C921.122,477.988 920.587,478.179 919.868,478.179L919.192,478.179L919.192,481.598L917.762,481.598L917.762,472.498L919.868,472.498ZM919.192,473.798L919.192,476.879L919.868,476.879C920.093,476.879 920.266,476.818 920.388,476.697C920.509,476.575 920.57,476.35 920.57,476.021L920.57,474.656C920.57,474.326 920.509,474.101 920.388,473.98C920.266,473.858 920.093,473.798 919.868,473.798L919.192,473.798Z" style="fill:rgb(76,76,76);fill-rule:nonzero;"/>
                    <path d="M925.471,479.505C925.471,479.834 925.538,480.066 925.672,480.2C925.806,480.334 925.986,480.402 926.212,480.402C926.437,480.402 926.617,480.334 926.751,480.2C926.885,480.066 926.953,479.834 926.953,479.505L926.953,474.591C926.953,474.261 926.885,474.029 926.751,473.895C926.617,473.761 926.437,473.694 926.212,473.694C925.986,473.694 925.806,473.761 925.672,473.895C925.538,474.029 925.471,474.261 925.471,474.591L925.471,479.505ZM924.041,474.682C924.041,473.945 924.227,473.379 924.6,472.985C924.972,472.591 925.51,472.394 926.212,472.394C926.914,472.394 927.451,472.591 927.824,472.985C928.196,473.379 928.383,473.945 928.383,474.682L928.383,479.414C928.383,480.15 928.196,480.716 927.824,481.11C927.451,481.504 926.914,481.702 926.212,481.702C925.51,481.702 924.972,481.504 924.6,481.11C924.227,480.716 924.041,480.15 924.041,479.414L924.041,474.682Z" style="fill:rgb(76,76,76);fill-rule:nonzero;"/>
                    <path d="M933.726,481.598C933.708,481.537 933.691,481.481 933.674,481.429C933.656,481.377 933.641,481.312 933.628,481.234C933.615,481.156 933.606,481.056 933.602,480.935C933.598,480.813 933.596,480.662 933.596,480.48L933.596,479.05C933.596,478.625 933.522,478.326 933.375,478.153C933.227,477.979 932.989,477.893 932.66,477.893L932.166,477.893L932.166,481.598L930.736,481.598L930.736,472.498L932.894,472.498C933.639,472.498 934.178,472.671 934.512,473.018C934.846,473.364 935.013,473.889 935.013,474.591L935.013,475.306C935.013,476.242 934.701,476.857 934.077,477.152C934.441,477.299 934.69,477.539 934.824,477.873C934.958,478.207 935.026,478.612 935.026,479.089L935.026,480.493C935.026,480.718 935.034,480.915 935.052,481.084C935.069,481.253 935.112,481.424 935.182,481.598L933.726,481.598ZM932.166,473.798L932.166,476.593L932.725,476.593C932.993,476.593 933.203,476.523 933.355,476.385C933.507,476.246 933.583,475.995 933.583,475.631L933.583,474.734C933.583,474.404 933.524,474.166 933.407,474.019C933.29,473.871 933.106,473.798 932.855,473.798L932.166,473.798Z" style="fill:rgb(76,76,76);fill-rule:nonzero;"/>
                    <path d="M936.976,472.498L941.396,472.498L941.396,473.798L939.901,473.798L939.901,481.598L938.471,481.598L938.471,473.798L936.976,473.798L936.976,472.498Z" style="fill:rgb(76,76,76);fill-rule:nonzero;"/>
                    <rect x="943.45" y="472.498" width="1.43" height="9.1" style="fill:rgb(76,76,76);fill-rule:nonzero;"/>
                    <path d="M948.624,475.007L948.624,481.598L947.337,481.598L947.337,472.498L949.131,472.498L950.6,477.945L950.6,472.498L951.874,472.498L951.874,481.598L950.405,481.598L948.624,475.007Z" style="fill:rgb(76,76,76);fill-rule:nonzero;"/>
                    <path d="M956.476,476.528L958.478,476.528L958.478,479.414C958.478,480.15 958.298,480.716 957.938,481.11C957.578,481.504 957.048,481.702 956.346,481.702C955.644,481.702 955.113,481.504 954.753,481.11C954.393,480.716 954.214,480.15 954.214,479.414L954.214,474.682C954.214,473.945 954.393,473.379 954.753,472.985C955.113,472.591 955.644,472.394 956.346,472.394C957.048,472.394 957.578,472.591 957.938,472.985C958.298,473.379 958.478,473.945 958.478,474.682L958.478,475.566L957.126,475.566L957.126,474.591C957.126,474.261 957.058,474.029 956.924,473.895C956.79,473.761 956.61,473.694 956.385,473.694C956.159,473.694 955.979,473.761 955.845,473.895C955.711,474.029 955.644,474.261 955.644,474.591L955.644,479.505C955.644,479.834 955.711,480.064 955.845,480.194C955.979,480.324 956.159,480.389 956.385,480.389C956.61,480.389 956.79,480.324 956.924,480.194C957.058,480.064 957.126,479.834 957.126,479.505L957.126,477.828L956.476,477.828L956.476,476.528Z" style="fill:rgb(76,76,76);fill-rule:nonzero;"/>
                    <path d="M967.448,476.749L966.928,481.598L964.965,481.598L963.951,472.498L965.342,472.498L966.109,479.674L966.798,472.498L968.176,472.498L968.891,479.726L969.632,472.498L970.88,472.498L969.866,481.598L967.968,481.598L967.448,476.749Z" style="fill:rgb(76,76,76);fill-rule:nonzero;"/>
                    <path d="M974.338,479.505C974.338,479.834 974.405,480.066 974.539,480.2C974.673,480.334 974.853,480.402 975.079,480.402C975.304,480.402 975.484,480.334 975.618,480.2C975.752,480.066 975.82,479.834 975.82,479.505L975.82,474.591C975.82,474.261 975.752,474.029 975.618,473.895C975.484,473.761 975.304,473.694 975.079,473.694C974.853,473.694 974.673,473.761 974.539,473.895C974.405,474.029 974.338,474.261 974.338,474.591L974.338,479.505ZM972.908,474.682C972.908,473.945 973.094,473.379 973.467,472.985C973.839,472.591 974.377,472.394 975.079,472.394C975.781,472.394 976.318,472.591 976.691,472.985C977.063,473.379 977.25,473.945 977.25,474.682L977.25,479.414C977.25,480.15 977.063,480.716 976.691,481.11C976.318,481.504 975.781,481.702 975.079,481.702C974.377,481.702 973.839,481.504 973.467,481.11C973.094,480.716 972.908,480.15 972.908,479.414L972.908,474.682Z" style="fill:rgb(76,76,76);fill-rule:nonzero;"/>
                    <path d="M982.632,478.959L983.607,472.498L985.596,472.498L985.596,481.598L984.244,481.598L984.244,475.072L983.256,481.598L981.904,481.598L980.838,475.163L980.838,481.598L979.59,481.598L979.59,472.498L981.579,472.498L982.632,478.959Z" style="fill:rgb(76,76,76);fill-rule:nonzero;"/>
                    <path d="M989.496,476.333L991.459,476.333L991.459,477.633L989.496,477.633L989.496,480.298L991.966,480.298L991.966,481.598L988.066,481.598L988.066,472.498L991.966,472.498L991.966,473.798L989.496,473.798L989.496,476.333Z" style="fill:rgb(76,76,76);fill-rule:nonzero;"/>
                    <path d="M995.554,475.007L995.554,481.598L994.267,481.598L994.267,472.498L996.061,472.498L997.53,477.945L997.53,472.498L998.804,472.498L998.804,481.598L997.335,481.598L995.554,475.007Z" style="fill:rgb(76,76,76);fill-rule:nonzero;"/>
                </g>
                <g transform="matrix(6.44942,0,0,2.76052,-4896.95,-1156.78)">
                    <path d="M901.642,476.749L901.122,481.598L899.159,481.598L898.145,472.498L899.536,472.498L900.303,479.674L900.992,472.498L902.37,472.498L903.085,479.726L903.826,472.498L905.074,472.498L904.06,481.598L902.162,481.598L901.642,476.749Z" style="fill:rgb(76,76,76);fill-rule:nonzero;"/>
                    <path d="M908.532,479.505C908.532,479.834 908.599,480.066 908.733,480.2C908.867,480.334 909.047,480.402 909.273,480.402C909.498,480.402 909.678,480.334 909.812,480.2C909.946,480.066 910.014,479.834 910.014,479.505L910.014,474.591C910.014,474.261 909.946,474.029 909.812,473.895C909.678,473.761 909.498,473.694 909.273,473.694C909.047,473.694 908.867,473.761 908.733,473.895C908.599,474.029 908.532,474.261 908.532,474.591L908.532,479.505ZM907.102,474.682C907.102,473.945 907.288,473.379 907.661,472.985C908.033,472.591 908.571,472.394 909.273,472.394C909.975,472.394 910.512,472.591 910.885,472.985C911.257,473.379 911.444,473.945 911.444,474.682L911.444,479.414C911.444,480.15 911.257,480.716 910.885,481.11C910.512,481.504 909.975,481.702 909.273,481.702C908.571,481.702 908.033,481.504 907.661,481.11C907.288,480.716 907.102,480.15 907.102,479.414L907.102,474.682Z" style="fill:rgb(76,76,76);fill-rule:nonzero;"/>
                    <path d="M916.826,478.959L917.801,472.498L919.79,472.498L919.79,481.598L918.438,481.598L918.438,475.072L917.45,481.598L916.098,481.598L915.032,475.163L915.032,481.598L913.784,481.598L913.784,472.498L915.773,472.498L916.826,478.959Z" style="fill:rgb(76,76,76);fill-rule:nonzero;"/>
                    <path d="M923.69,476.333L925.653,476.333L925.653,477.633L923.69,477.633L923.69,480.298L926.16,480.298L926.16,481.598L922.26,481.598L922.26,472.498L926.16,472.498L926.16,473.798L923.69,473.798L923.69,476.333Z" style="fill:rgb(76,76,76);fill-rule:nonzero;"/>
                    <path d="M929.748,475.007L929.748,481.598L928.461,481.598L928.461,472.498L930.255,472.498L931.724,477.945L931.724,472.498L932.998,472.498L932.998,481.598L931.529,481.598L929.748,475.007Z" style="fill:rgb(76,76,76);fill-rule:nonzero;"/>
                    <path d="M940.33,481.598L938.9,481.598L938.9,472.498L940.33,472.498L940.33,476.398L941.955,476.398L941.955,472.498L943.411,472.498L943.411,481.598L941.955,481.598L941.955,477.698L940.33,477.698L940.33,481.598Z" style="fill:rgb(76,76,76);fill-rule:nonzero;"/>
                    <path d="M947.246,472.498L947.246,479.518C947.246,479.847 947.313,480.077 947.447,480.207C947.581,480.337 947.761,480.402 947.987,480.402C948.212,480.402 948.392,480.337 948.526,480.207C948.66,480.077 948.728,479.847 948.728,479.518L948.728,472.498L950.08,472.498L950.08,479.427C950.08,480.163 949.9,480.729 949.54,481.123C949.18,481.517 948.65,481.715 947.948,481.715C947.246,481.715 946.715,481.517 946.355,481.123C945.995,480.729 945.816,480.163 945.816,479.427L945.816,472.498L947.246,472.498Z" style="fill:rgb(76,76,76);fill-rule:nonzero;"/>
                    <path d="M954.643,472.498C955.388,472.498 955.927,472.671 956.261,473.018C956.595,473.364 956.762,473.889 956.762,474.591L956.762,474.916C956.762,475.384 956.688,475.769 956.541,476.073C956.393,476.376 956.159,476.601 955.839,476.749C956.229,476.896 956.504,477.136 956.664,477.47C956.824,477.804 956.905,478.213 956.905,478.699L956.905,479.44C956.905,480.142 956.723,480.677 956.359,481.045C955.995,481.413 955.453,481.598 954.734,481.598L952.485,481.598L952.485,472.498L954.643,472.498ZM953.915,477.503L953.915,480.298L954.734,480.298C954.976,480.298 955.16,480.233 955.286,480.103C955.412,479.973 955.475,479.739 955.475,479.401L955.475,478.608C955.475,478.183 955.403,477.893 955.26,477.737C955.117,477.581 954.881,477.503 954.552,477.503L953.915,477.503ZM953.915,473.798L953.915,476.203L954.474,476.203C954.742,476.203 954.952,476.133 955.104,475.995C955.256,475.856 955.332,475.605 955.332,475.241L955.332,474.734C955.332,474.404 955.273,474.166 955.156,474.019C955.039,473.871 954.855,473.798 954.604,473.798L953.915,473.798Z" style="fill:rgb(76,76,76);fill-rule:nonzero;"/>
                </g>
                <g transform="matrix(1,0,0,0.428027,2.10794,-97.5901)">
                    <path d="M671.676,698.703L672.503,600.442C672.51,599.617 672.971,598.864 673.703,598.483L727.624,570.413C728.449,569.983 729.454,570.111 730.145,570.733L750.104,588.696L750.104,506.772C750.104,505.926 750.583,505.153 751.34,504.776L810.396,475.39C811.151,475.015 812.053,475.097 812.727,475.603L859.516,510.694C860.077,511.115 860.408,511.776 860.408,512.478L860.408,698.522L888.689,698.495C835.7,713.827 697.673,711.736 643.366,698.731L888.689,698.495L671.676,698.703ZM726.709,698.65L726.709,575.916L676.95,601.82L676.135,698.699L726.709,698.65ZM731.168,698.646L763.513,698.615L763.513,606.763L731.168,577.653L731.168,698.646ZM809.16,698.571L809.16,480.986L754.563,508.153L754.563,592.076L753.859,592.076L765.252,602.33L797.035,587.766L798.892,591.82L767.972,605.988L767.972,632.07L797.035,618.753L798.892,622.806L767.972,636.975L767.972,661.051L797.035,647.734L798.892,651.788L767.972,665.956L767.972,691.491L797.035,678.174L798.892,682.227L767.972,696.396L767.972,698.611L809.16,698.571ZM813.619,698.567L842.809,698.539L821.106,682.547L823.752,678.957L850.315,698.532L855.949,698.526L855.949,513.592L813.619,481.845L813.619,698.567ZM758.933,687.157L737.466,669.112L734.597,672.525L756.064,690.57L758.933,687.157ZM686.288,687.609L718.51,672.845L716.652,668.791L684.431,683.556L686.288,687.609ZM852.692,672.031L823.752,650.705L821.106,654.295L850.047,675.62L852.692,672.031ZM758.933,669.112L737.466,651.067L734.597,654.48L756.064,672.525L758.933,669.112ZM686.288,665.189L718.51,650.425L716.652,646.372L684.431,661.136L686.288,665.189ZM852.692,639.404L823.752,618.078L821.106,621.668L850.047,642.994L852.692,639.404ZM758.933,639.492L737.466,621.447L734.597,624.86L756.064,642.905L758.933,639.492ZM686.288,639.945L718.51,625.181L716.652,621.127L684.431,635.891L686.288,639.945ZM758.933,616.799L737.466,598.754L734.597,602.167L756.064,620.212L758.933,616.799ZM686.288,617.252L718.51,602.488L716.652,598.434L684.431,613.198L686.288,617.252ZM852.692,609.329L823.752,588.003L821.106,591.593L850.047,612.919L852.692,609.329ZM852.692,583.977L823.752,562.651L821.106,566.241L850.047,587.567L852.692,583.977ZM766.671,580.69L798.892,565.926L797.035,561.873L764.813,576.637L766.671,580.69ZM852.692,551.715L823.752,530.389L821.106,533.979L850.047,555.305L852.692,551.715ZM766.671,550.433L798.892,535.669L797.035,531.615L764.813,546.379L766.671,550.433ZM852.692,525.285L823.752,503.959L821.106,507.549L850.047,528.875L852.692,525.285ZM766.671,522.727L798.892,507.963L797.035,503.91L764.813,518.674L766.671,522.727Z" style="fill:rgb(76,76,76);"/>
                </g>
            </g>
        </g>
    </g>
</svg>
