<?xml version="1.0" encoding="UTF-8" standalone="no"?>
<!DOCTYPE svg PUBLIC "-//W3C//DTD SVG 1.1//EN" "http://www.w3.org/Graphics/SVG/1.1/DTD/svg11.dtd">
<svg width="100%" height="100%" viewBox="0 0 67 67" version="1.1" xmlns="http://www.w3.org/2000/svg" xmlns:xlink="http://www.w3.org/1999/xlink" xml:space="preserve" xmlns:serif="http://www.serif.com/" style="fill-rule:evenodd;clip-rule:evenodd;stroke-linejoin:round;stroke-miterlimit:2;">
    <g transform="matrix(1,0,0,1,-303.418,-1803.89)">
        <g transform="matrix(1,0,0,3.99,0,0)">
            <g id="conference-svgrepo-com.svg" transform="matrix(0.146459,0,0,0.0367066,336.709,460.447)">
                <g transform="matrix(1,0,0,1,-227.305,-227.305)">
                    <clipPath id="_clip1">
                        <rect x="0" y="0" width="454.611" height="454.611"/>
                    </clipPath>
                    <g clip-path="url(#_clip1)">
                        <g>
                            <circle cx="115.709" cy="37.417" r="37.417"/>
                            <path d="M262.771,171.003C271.242,165.744 273.846,154.613 268.586,146.142C264.813,140.065 258.017,137.028 251.35,137.729L251.928,127.956C256.153,124.711 258.888,119.624 258.888,113.885C258.888,104.082 250.941,96.135 241.138,96.135C231.335,96.135 223.388,104.082 223.388,113.885C223.388,119.624 226.123,124.711 230.348,127.956L231.528,147.9L207.16,163.03L206.991,129.272C206.873,105.832 187.707,86.762 164.267,86.762L146.505,86.762C143.145,95.476 126.75,137.996 123.362,146.782L128.755,121.326C129.13,119.56 128.858,117.717 127.988,116.135L120.648,102.785L127.16,90.94C127.612,90.118 127.597,89.118 127.119,88.31C126.641,87.502 125.747,86.76 124.809,86.76L106.915,86.76C105.977,86.76 105.134,87.502 104.656,88.31C104.178,89.118 104.163,90.118 104.615,90.94L111.141,102.809L103.787,116.183C102.933,117.735 102.655,119.539 102.999,121.277L107.744,146.78C105.203,140.191 87.664,92.969 85.269,86.759L67.151,86.759C43.711,86.759 24.545,105.829 24.427,129.269L23.761,261.905C23.711,271.876 31.753,280 41.724,280.05C41.755,280.05 41.786,280.051 41.817,280.051C51.745,280.051 59.819,272.027 59.869,262.088L60.535,129.452C60.545,127.476 62.151,125.882 64.126,125.888C66.101,125.893 67.698,127.496 67.698,129.47L67.707,432.945C67.707,444.91 77.406,454.61 89.372,454.61C101.338,454.61 111.036,444.911 111.036,432.945L111.036,264.455C111.036,261.872 113.13,259.778 115.713,259.778C118.296,259.778 120.39,261.872 120.39,264.455L120.39,432.946C120.39,444.911 130.089,454.611 142.055,454.611C154.02,454.611 163.719,444.912 163.719,432.946L163.334,129.38C163.331,127.296 165.019,125.604 167.104,125.601C169.189,125.598 170.88,127.286 170.883,129.371L170.883,129.453L171.214,195.479C171.285,209.677 186.909,218.105 198.791,210.726L233.953,188.894L234.345,195.511C234.509,198.288 236.809,200.456 239.591,200.456L242.683,200.456C245.465,200.456 247.765,198.288 247.929,195.511L248.869,179.632L262.771,171.003Z" style="fill-rule:nonzero;"/>
                            <path d="M424.993,122.585C417.182,114.774 404.518,114.774 396.708,122.585L258.115,261.177C250.306,268.987 250.306,281.651 258.115,289.461C265.925,297.271 278.589,297.272 286.4,289.461L304.137,271.724L304.137,442.513C304.137,449.194 309.553,454.611 316.235,454.611L390.04,454.611C396.721,454.611 402.138,449.195 402.138,442.513L402.138,173.724L424.993,150.869C432.802,143.058 432.802,130.395 424.993,122.585Z" style="fill-rule:nonzero;"/>
                        </g>
                    </g>
                </g>
            </g>
        </g>
    </g>
</svg>
